<svg width="176" height="44" viewBox="0 0 176 44" fill="none" xmlns="http://www.w3.org/2000/svg">
<path d="M15.1677 12.4688C13.4389 11.3666 11.489 10.7022 9.5036 10.7022C5.97271 10.7022 4.53725 12.8376 4.53725 14.6398C4.53725 17.1774 7.22264 18.3906 9.72359 19.7161C12.9978 21.4449 16.9343 23.5036 16.9343 27.8456C16.9343 31.6709 13.9533 35.3485 8.76698 35.3485C6.04493 35.3485 3.10289 34.3185 1.29967 33.2153L0.491943 29.2788H0.71193C1.9263 31.0832 5.1261 33.2153 8.47256 33.2153C11.9679 33.2153 13.9167 30.8976 13.9167 28.25C13.9167 24.9013 10.7902 23.0992 8.03147 21.6282C4.53725 19.7883 1.66743 18.4651 1.66743 14.9708C1.66743 11.6599 4.35393 8.57013 9.1714 8.57013C11.379 8.57013 14.0278 9.2312 14.8366 9.4523L15.1677 12.4688Z" fill="#212322"/>
<path d="M26.721 6.14184H26.2055C27.3832 3.78754 27.8976 2.05987 28.0443 -3.8147e-06H30.693V0.293312C29.8109 2.79538 28.4865 4.63526 26.721 6.14184ZM38.1237 30.7503L36.5782 35.0534C36.1371 34.9434 35.7327 34.8345 35.1439 34.8345H21.2036V34.539C21.5714 34.0246 21.8658 33.289 21.8658 32.5535V11.366C21.8658 10.6304 21.5714 9.89494 21.2036 9.37941V9.0861H32.864C33.5995 9.0861 34.335 9.0861 34.8872 8.82723H35.0339V13.057H34.8872C34.1884 11.6237 33.3784 11.1449 31.2085 11.1449H24.6612V18.9433H30.9874C31.5763 18.9433 31.9441 18.7955 32.2751 18.6122H32.4218V21.592H32.2751C31.5763 21.2609 30.7664 21.002 30.0675 21.002H24.6612V32.7735H33.0473C35.6594 32.7735 36.9826 31.6703 37.977 30.6403L38.1237 30.7503Z" fill="#212322"/>
<path d="M42.2091 9.08601H46.3289V9.37932C45.9611 9.89484 45.6667 10.6304 45.6667 11.3659V35.6055C45.6667 40.4996 43.3857 42.9995 38.5671 43.6605V43.3672C41.8047 41.344 42.8713 39.3952 42.8713 34.2822V11.3659C42.8713 10.6304 42.5769 9.89484 42.2091 9.37932V9.08601Z" fill="#212322"/>
<path d="M63.6558 10.7026C57.4395 10.7026 53.8342 14.7868 53.8342 21.2231C53.8342 28.4693 58.4317 33.2157 65.1268 33.2157C71.3431 33.2157 74.9485 29.1337 74.9485 22.6941C74.9485 15.449 70.351 10.7026 63.6558 10.7026ZM64.3913 35.3489C56.814 35.3489 50.8188 30.0525 50.8188 22.033C50.8188 14.2346 56.5563 8.56943 64.3913 8.56943C71.9686 8.56943 77.9649 13.8658 77.9649 21.8853C77.9649 29.6837 72.2264 35.3489 64.3913 35.3489Z" fill="#212322"/>
<path d="M102.074 11.3665V32.5541C102.074 33.2896 102.368 34.0251 102.736 34.5395V34.8339H99.0939C99.2039 33.3996 99.2783 32.4063 99.2783 31.2286C96.924 33.6207 94.0053 35.2006 90.4744 35.2006C85.5092 35.2006 82.5294 32.223 82.5294 27.4766V11.3665C82.5294 10.631 82.2349 9.89547 81.8672 9.37884V9.08663H86.098C85.5458 10.0788 85.3259 11.8453 85.3259 13.3519V26.2633C85.3259 30.8975 87.7157 33.0685 91.5421 33.0685C95.6241 33.0685 97.954 30.6397 99.2783 28.7643V13.3519C99.2783 11.8453 99.0572 10.0788 98.5062 9.08663H102.736V9.37884C102.368 9.89547 102.074 10.631 102.074 11.3665Z" fill="#212322"/>
<path d="M119.66 15.4111C119.66 12.5423 118.52 10.888 114.437 10.888C113.333 10.888 112.414 10.888 111.605 10.9236V20.8563H111.973C118.814 20.8563 119.66 17.8765 119.66 15.4111ZM127.349 34.5388V34.8343C126.87 34.8698 126.465 34.9076 126.061 34.9076C123.522 34.9076 122.53 33.8032 121.94 33.0322L115.247 24.2394C114.584 23.3561 113.665 22.6584 112.046 22.6584H111.605V30.5668C111.605 32.1111 111.825 33.841 112.377 34.8343H108.148V34.5388C108.515 34.0255 108.81 33.2888 108.81 32.5533V11.3669C108.81 10.6314 108.515 9.89584 108.148 9.37921V9.08589C109.986 8.93812 112.489 8.90035 114.437 8.90035C120.544 8.90035 122.677 11.2924 122.677 14.97C122.677 19.2386 119.587 21.2974 116.938 22.1806L124.7 32.0378C125.546 33.1044 126.392 34.0255 127.349 34.5388Z" fill="#212322"/>
<path d="M153.581 9.08603V9.37935C153.213 9.89487 152.919 10.6304 152.919 11.3659V35.2011H152.625L133.46 13.0213V30.5669C133.46 32.0757 133.68 33.8412 134.232 34.8344H130.445V34.5389C130.813 34.0245 131.106 33.289 131.106 32.5535V12.3592C131.106 11.0715 130.445 9.8571 129.708 9.37935V9.08603H133.608L150.565 28.7648V13.3513C150.565 11.8448 150.344 10.0782 149.791 9.08603H153.581Z" fill="#212322"/>
<path d="M175.508 30.7499L173.964 35.0541C173.523 34.9441 173.118 34.8341 172.529 34.8341H158.588V34.5397C158.956 34.0253 159.25 33.2898 159.25 32.5542V11.3667C159.25 10.6312 158.956 9.89565 158.588 9.37902V9.0857H170.248C170.984 9.0857 171.719 9.0857 172.271 8.82683H172.418V13.0566H172.271C171.573 11.6233 170.764 11.1456 168.593 11.1456H162.045V18.9429H168.373C168.961 18.9429 169.328 18.7962 169.659 18.6118H169.807V21.5927H169.659C168.961 21.2616 168.152 21.0027 167.453 21.0027H162.045V32.7731H170.432C173.044 32.7731 174.368 31.671 175.361 30.6399L175.508 30.7499Z" fill="#212322"/>
</svg>
